HIERARCHY
ROOT Hips
{
	OFFSET -3.958830 18.904000 13.208200
	CHANNELS 6 Xposition Yposition Zposition Zrotation Yrotation Xrotation 
	JOINT LHipJoint
	{
		OFFSET 0.000000 0.000000 0.000000
		CHANNELS 3 Zrotation Yrotation Xrotation
		JOINT LeftUpLeg
		{
			OFFSET 1.800000 -1.400000 0.085000
			CHANNELS 3 Zrotation Yrotation Xrotation
			JOINT LeftLeg
			{
				OFFSET 2.215000 -6.000000 0.000000
				CHANNELS 3 Zrotation Yrotation Xrotation
				JOINT LeftFoot
				{
					OFFSET 2.500000 -6.900000 0.000000
					CHANNELS 3 Zrotation Yrotation Xrotation
					JOINT LeftToeBase
					{
						OFFSET 0.200000 -0.500000 1.950000
						CHANNELS 3 Zrotation Yrotation Xrotation
						End Site
						{
							OFFSET 0.000000 0.000000 0.000000
						}
					}
				}
			}
		}
	}
	JOINT RHipJoint
	{
		OFFSET 0.000000 0.000000 0.000000
		CHANNELS 3 Zrotation Yrotation Xrotation
		JOINT RightUpLeg
		{
			OFFSET -1.800000 -1.400000 0.085000
			CHANNELS 3 Zrotation Yrotation Xrotation
			JOINT RightLeg
			{
				OFFSET -2.215000 -6.000000 0.000000
				CHANNELS 3 Zrotation Yrotation Xrotation
				JOINT RightFoot
				{
					OFFSET -2.500000 -6.900000 0.000000
					CHANNELS 3 Zrotation Yrotation Xrotation
					JOINT RightToeBase
					{
						OFFSET -0.200000 -0.500000 1.950000
						CHANNELS 3 Zrotation Yrotation Xrotation
						End Site
						{
							OFFSET 0.000000 0.000000 0.000000
						}
					}
				}
			}
		}
	}
	JOINT LowerBack
	{
		OFFSET 0.000000 0.000000 0.000000
		CHANNELS 3 Zrotation Yrotation Xrotation
		JOINT Spine
		{
			OFFSET -0.087000 1.940000 -0.288900
			CHANNELS 3 Zrotation Yrotation Xrotation
			JOINT Spine1
			{
				OFFSET 0.000000 1.950000 0.060000
				CHANNELS 3 Zrotation Yrotation Xrotation
				JOINT Neck
				{
					OFFSET 0.000000 0.000000 0.000000
					CHANNELS 3 Zrotation Yrotation Xrotation
					JOINT Neck1
					{
						OFFSET 0.000000 1.600000 0.340000
						CHANNELS 3 Zrotation Yrotation Xrotation
						JOINT Head
						{
							OFFSET 0.000000 1.667000 -0.240000
							CHANNELS 3 Zrotation Yrotation Xrotation
							End Site
							{
								OFFSET 0.000000 0.000000 0.000000
							}
						}
					}
				}
				JOINT LeftShoulder
				{
					OFFSET 0.000000 0.000000 0.000000
					CHANNELS 3 Zrotation Yrotation Xrotation
					JOINT LeftArm
					{
						OFFSET 2.700000 1.550000 -0.730000
						CHANNELS 3 Zrotation Yrotation Xrotation
						JOINT LeftForeArm
						{
							OFFSET 5.450000 0.000000 0.000000
							CHANNELS 3 Zrotation Yrotation Xrotation
							JOINT LeftHand
							{
								OFFSET 3.450000 0.000000 0.000000
								CHANNELS 3 Zrotation Yrotation Xrotation
								JOINT LeftHandIndex1
								{
									OFFSET 0.750000 0.000000 0.000000
									CHANNELS 3 Zrotation Yrotation Xrotation
									End Site
									{
										OFFSET 0.000000 0.000000 0.000000
									}
								}
							}
						}
					}
				}
				JOINT RightShoulder
				{
					OFFSET 0.000000 0.000000 0.000000
					CHANNELS 3 Zrotation Yrotation Xrotation
					JOINT RightArm
					{
						OFFSET -2.700000 1.550000 -0.730000
						CHANNELS 3 Zrotation Yrotation Xrotation
						JOINT RightForeArm
						{
							OFFSET -5.450000 0.000000 0.000000
							CHANNELS 3 Zrotation Yrotation Xrotation
							JOINT RightHand
							{
								OFFSET -3.450000 0.000000 0.000000
								CHANNELS 3 Zrotation Yrotation Xrotation
								JOINT RightHandIndex1
								{
									OFFSET -0.750000 0.000000 0.000000
									CHANNELS 3 Zrotation Yrotation Xrotation
									End Site
									{
										OFFSET 0.000000 0.000000 0.000000
									}
								}
							}
						}
					}
				}
			}
		}
	}
}
MOTION
Frames: 8
Frame Time: 0.016667
5.245320 16.089700 0.869260 -115.180993 82.940745 -122.640838 -15.435313 13.891093 3.422129 18.046781 -2.526643 -31.278420 18.446268 2.250914 44.101859 0.440450 7.255389 1.832540 -0.042860 -0.128970 -0.055860 17.903762 -11.081644 2.503268 -10.907889 3.326760 -27.660276 -6.005879 -3.897981 39.560586 -0.192437 -4.938317 2.534511 -0.069190 0.133130 -0.001020 -2.551251 -2.033995 -7.662339 -5.872590 1.378644 19.345923 2.261449 1.934142 -5.911710 -0.299473 -4.694961 -3.410570 -10.714875 7.381613 44.995564 0.072660 3.187460 3.688230 -5.300541 26.615915 -1.288138 -56.610948 9.880659 -8.930973 91.325191 -81.906062 -72.664822 -2.611360 -2.067753 0.139050 0.037290 -0.049360 0.047870 6.333793 -19.040807 -1.077453 53.374544 -2.531926 -2.561276 -133.351652 60.478332 -113.494669 2.355540 -1.726368 -0.112560 0.078420 0.067510 -0.023730 
5.189940 16.140210 0.879480 -135.178020 79.158765 -143.551771 -15.516958 13.589476 3.689396 18.379012 -2.671534 -34.160625 18.409687 2.325509 44.765830 0.437853 7.394941 1.787225 -0.016160 -0.083160 -0.041360 17.886009 -11.021169 2.369644 -9.853732 3.386924 -25.516795 -4.171331 -5.061681 41.759193 -0.274000 -5.441071 2.375822 -0.023450 0.147040 0.009800 -2.460862 -1.905392 -7.740598 -6.239495 3.128701 21.243497 1.641386 4.091953 -3.461676 1.575422 -3.526282 -3.650049 -8.385158 4.212759 44.388928 -0.888040 1.162020 2.282140 -7.176431 25.229619 -2.105586 -56.655252 4.540519 1.459156 121.582640 -72.127253 -112.301085 -3.710351 2.943919 0.102580 0.068520 -0.058740 0.057550 4.423789 -18.015651 0.215541 46.394000 -1.294904 -1.374785 -135.225065 56.641103 -111.857773 2.339209 -1.831232 -0.107890 0.100020 0.055350 -0.014690 
5.143470 16.191040 0.918540 -143.562969 75.818661 -153.734816 -15.536039 13.407481 3.807645 18.497559 -2.553912 -35.597292 17.481886 2.812211 45.491115 0.439729 7.522709 1.746089 0.014190 -0.033100 -0.025740 17.914355 -10.945109 2.321199 -8.332500 3.674623 -23.095104 -3.029165 -6.204122 45.665983 -0.446860 -6.247109 2.127812 0.018530 0.160540 0.018270 -2.407081 -1.781199 -7.804045 -6.302546 4.394466 23.178571 0.073828 5.875600 -0.891080 3.126518 -3.214709 -4.102243 -7.773420 2.775818 44.650964 -2.110360 0.203760 1.668010 -9.173758 23.158745 -3.061736 -55.920481 0.149124 3.234711 133.098663 -67.510082 -120.464392 -3.635528 3.416480 0.065230 0.096790 -0.063590 0.075960 3.059341 -15.870429 1.758383 39.464524 -0.515676 -0.635739 -138.486357 53.914149 -113.656521 2.341212 -1.965208 -0.099530 0.119970 0.036640 -0.001870 
5.112600 16.244490 0.975590 -150.505002 72.499361 -162.356688 -15.545780 13.111797 3.905627 18.203256 -2.692083 -36.910130 15.454035 3.895075 47.578519 0.467260 7.880374 1.630528 0.037900 0.008970 -0.024300 17.975314 -10.795114 2.366611 -6.773415 4.296717 -21.439378 -2.130823 -7.750516 51.758904 -0.728952 -7.473916 1.742093 0.062440 0.191980 0.038190 -2.431381 -1.583597 -7.886131 -7.057828 4.992658 25.033759 -2.495609 6.839318 1.366920 4.502060 -3.202278 -4.209062 -7.156067 2.840784 44.252268 -3.061800 0.562490 1.302070 -12.104049 20.667849 -3.919537 -53.246675 -3.424125 4.776296 136.827994 -60.123357 -116.314328 -3.705748 3.371700 0.023480 0.140140 -0.080330 0.096630 2.984332 -13.470158 2.760224 32.801769 1.892007 0.857119 -141.603211 52.142333 -116.400157 2.344794 -2.054806 -0.097810 0.129110 0.027490 0.010530 
5.097490 16.274520 1.052750 -156.282267 69.326090 -169.555708 -15.531802 12.802731 3.947258 17.265528 -3.032096 -37.490799 12.742268 5.302471 49.726996 0.537027 8.253912 1.526160 0.039210 0.032300 -0.085920 18.039328 -10.664311 2.517907 -5.025279 5.129923 -19.955737 -0.800578 -9.651226 57.612959 -1.024214 -8.705282 1.387989 0.090040 0.255140 0.025940 -2.639688 -1.323702 -7.966463 -7.849162 4.716204 26.121229 -5.580290 6.992071 4.529297 4.967518 -4.539035 -5.298297 -9.244286 4.717785 44.234481 -1.723740 0.179860 2.300530 -12.957621 16.905508 -3.192078 -51.299909 -4.663429 3.621083 135.692297 -52.462916 -105.316886 -3.761169 3.254747 -0.030630 0.168640 -0.129910 0.131890 2.716726 -8.724543 3.671915 24.313129 5.566931 1.771605 -143.089823 53.603567 -120.551134 2.375647 -2.063979 -0.099950 0.145900 0.030600 0.050400 
5.104010 16.309040 1.132840 -160.252661 66.366101 -174.322930 -15.524045 12.345315 4.006585 16.934631 -3.200596 -37.801415 8.115577 7.850619 50.845350 0.600709 8.604445 1.405462 0.083640 0.101620 -0.102770 18.105408 -10.543637 2.750204 -2.363659 6.226008 -18.831779 0.663431 -11.442739 62.329710 -1.328613 -9.700282 1.111023 0.126800 0.270830 0.016770 -2.983585 -0.755779 -8.056452 -8.583099 4.678924 26.129438 -9.291895 7.269869 7.227831 5.469822 -4.861403 -6.455992 -9.189859 6.831267 45.337079 0.791910 0.723590 2.547060 -13.684519 12.576938 -2.264488 -47.990115 -5.138757 0.756860 133.561982 -46.554994 -94.628541 -3.748526 3.208467 -0.044100 0.156160 -0.130630 0.168950 2.481284 -4.196773 4.598987 20.733999 9.616307 2.384675 -143.836543 56.153214 -125.112851 2.388146 -2.049503 -0.084630 0.148100 0.003520 0.079380 
5.111960 16.304050 1.219210 -163.355053 63.258494 -178.320225 -15.627704 11.775216 4.317357 17.716096 -3.609004 -38.831391 1.400496 12.077292 52.994199 0.797323 9.618798 1.072992 0.106750 0.138690 -0.119590 18.107887 -10.176274 2.882337 0.194269 7.149220 -17.414473 2.948765 -13.927763 66.119543 -1.626069 -10.632458 0.861832 0.143290 0.280350 0.008000 -3.094942 -0.524370 -8.248860 -10.783445 5.555561 26.729441 -10.593139 8.411615 8.914010 5.839027 -4.334667 -7.310123 -7.686734 7.728685 46.682001 3.298830 0.816540 2.744440 -14.539655 8.764618 -1.406552 -45.356695 -5.085815 -1.768186 131.367392 -43.405261 -87.464993 -3.734317 3.192834 -0.043010 0.139430 -0.129310 0.186820 2.647428 -0.238894 5.098002 16.118166 12.476833 1.814854 -141.053711 59.325775 -124.614901 2.416669 -1.933269 -0.075370 0.151610 -0.003750 0.096500 
5.143050 16.280080 1.285620 -165.018948 60.140805 179.742451 -15.711813 11.203429 4.655521 18.703565 -4.134402 -39.462589 -6.080318 16.054207 52.199311 0.971490 10.403590 0.816833 0.146400 0.194450 -0.101430 18.119799 -9.833834 2.991435 3.132505 7.560785 -15.772308 5.380814 -16.525848 68.489355 -1.901351 -11.367995 0.672252 0.168130 0.258810 0.009350 -3.180082 -0.284487 -8.434948 -11.734912 6.574839 26.251303 -11.520063 10.053699 10.348974 6.408840 -3.562973 -8.242460 -6.113040 7.712456 48.149205 4.648650 0.826630 1.921340 -15.566783 4.608375 -0.498216 -43.861252 -5.915362 -3.757696 127.335499 -44.190527 -83.811004 -3.736215 3.103789 -0.024580 0.113850 -0.097490 0.194490 2.521114 3.819584 5.602293 12.197707 14.182824 0.625577 -139.486246 63.827138 -127.362506 2.418050 -1.864537 -0.058150 0.158460 -0.018420 0.100380 
